<svg width="100" height="100" viewBox="0 0 100 100" fill="none" xmlns="http://www.w3.org/2000/svg">
<g clip-path="url(#clip0_12_1448)">
<path d="M42.0985 36.3184C41.4896 34.8817 41.4401 33.4972 41.9502 32.1649C42.4603 30.8327 43.3811 29.8843 44.7127 29.3199C46.2195 28.6813 47.7287 28.6823 49.2404 29.323C50.802 29.984 51.9244 31.1204 52.6076 32.7323C53.2165 34.169 53.266 35.5535 52.7559 36.8858C52.2607 38.2531 51.3473 39.219 50.0157 39.7834C48.5089 40.422 46.9747 40.4109 45.4131 39.75C43.8866 39.0742 42.7817 37.9304 42.0985 36.3184ZM25.0003 41.7673C24.3914 40.3306 24.342 38.9461 24.852 37.6138C25.3621 36.2815 26.2829 35.3332 27.6145 34.7688C29.1213 34.1301 30.6305 34.1312 32.1422 34.7719C33.7038 35.4328 34.8262 36.5692 35.5094 38.1811C36.1183 39.6178 36.1678 41.0023 35.6577 42.3346C35.1625 43.702 34.2491 44.6678 32.9175 45.2322C31.4107 45.8709 29.8765 45.8597 28.3149 45.1988C26.7884 44.523 25.6835 43.3792 25.0003 41.7673ZM81.2286 54.7624C81.6742 55.8137 81.6143 57.0378 81.049 58.4349C80.5336 59.8521 79.5786 61.2076 78.1842 62.5013C77.1858 63.4619 75.9953 64.3592 74.6127 65.1932C73.23 66.0272 71.6977 66.8007 70.0157 67.5136C67.2124 68.7018 64.115 69.6839 60.7236 70.46C57.3471 71.2711 53.9441 71.8247 50.5146 72.1208C47.1351 72.4371 43.9515 72.4843 40.9639 72.2625C38.0113 72.0258 35.5048 71.4761 33.4443 70.6132C32.2319 70.0937 31.3546 69.5354 30.8123 68.9386C30.2497 68.3916 29.8422 67.8202 29.5898 67.2245C29.2333 66.3835 29.0669 65.5033 29.0906 64.5839C29.0792 63.6793 29.2923 62.8655 29.73 62.1427C30.1326 61.4346 30.7343 60.9523 31.5349 60.6956C34.5019 62.3316 37.9935 63.3526 42.0099 63.7585C46.0262 64.1643 50.2747 63.9964 54.7555 63.2547C59.2712 62.4982 63.7192 61.1916 68.0994 59.3351C70.0617 58.5034 72.0146 57.5517 73.9579 56.48C75.9012 55.4083 77.7325 54.2187 79.4519 52.9113C80.2948 53.3394 80.887 53.9565 81.2286 54.7624Z" fill="black"/>
</g>
<defs>
<clipPath id="clip0_12_1448">
<rect width="100" height="100" fill="white"/>
</clipPath>
</defs>
</svg>
