<svg xmlns="http://www.w3.org/2000/svg" version="1.1" xmlns:xlink="http://www.w3.org/1999/xlink" xmlns:svgjs="http://svgjs.dev/svgjs" width="1000" height="1000"><style>
    #light-icon {
      display: inline;
    }
    #dark-icon {
      display: none;
    }

    @media (prefers-color-scheme: dark) {
      #light-icon {
        display: none;
      }
      #dark-icon {
        display: inline;
      }
    }
  </style><g id="light-icon"><svg xmlns="http://www.w3.org/2000/svg" version="1.1" xmlns:xlink="http://www.w3.org/1999/xlink" xmlns:svgjs="http://svgjs.dev/svgjs" width="1000" height="1000"><g clip-path="url(#SvgjsClipPath1070)"><rect width="1000" height="1000" fill="#000000"></rect><g transform="matrix(10,0,0,10,0,0)"><svg xmlns="http://www.w3.org/2000/svg" version="1.1" xmlns:xlink="http://www.w3.org/1999/xlink" xmlns:svgjs="http://svgjs.dev/svgjs" width="100" height="100"><svg width="100" height="100" viewBox="0 0 100 100" fill="none" xmlns="http://www.w3.org/2000/svg">
<g clip-path="url(#clip0_729_2)">
<circle cx="50" cy="50" r="50" fill="black"></circle>
<path d="M42.0985 36.3184C41.4895 34.8817 41.4401 33.4972 41.9502 32.1649C42.4602 30.8327 43.3811 29.8843 44.7127 29.3199C46.2194 28.6813 47.7287 28.6823 49.2404 29.323C50.8019 29.984 51.9243 31.1204 52.6075 32.7323C53.2165 34.169 53.2659 35.5535 52.7558 36.8858C52.2606 38.2531 51.3472 39.219 50.0156 39.7834C48.5088 40.422 46.9746 40.4109 45.4131 39.75C43.8865 39.0742 42.7817 37.9304 42.0985 36.3184ZM25.0003 41.7673C24.3913 40.3306 24.3419 38.9461 24.852 37.6138C25.362 36.2815 26.2829 35.3332 27.6145 34.7688C29.1213 34.1301 30.6305 34.1312 32.1422 34.7719C33.7037 35.4328 34.8261 36.5692 35.5093 38.1811C36.1183 39.6178 36.1677 41.0023 35.6576 42.3346C35.1624 43.702 34.249 44.6678 32.9174 45.2322C31.4106 45.8709 29.8764 45.8597 28.3149 45.1988C26.7884 44.523 25.6835 43.3792 25.0003 41.7673Z" fill="#C6FFE2"></path>
<path d="M81.2285 54.7624C81.6741 55.8137 81.6142 57.0378 81.0489 58.4349C80.5335 59.8521 79.5786 61.2076 78.1841 62.5013C77.1858 63.4619 75.9953 64.3592 74.6126 65.1932C73.23 66.0272 71.6977 66.8007 70.0157 67.5136C67.2123 68.7018 64.115 69.6839 60.7236 70.46C57.347 71.2711 53.944 71.8247 50.5146 72.1208C47.135 72.4371 43.9514 72.4843 40.9638 72.2625C38.0112 72.0258 35.5047 71.4761 33.4442 70.6132C32.2319 70.0937 31.3546 69.5354 30.8122 68.9386C30.2497 68.3916 29.8422 67.8202 29.5897 67.2245C29.2332 66.3835 29.0668 65.5033 29.0905 64.5839C29.0791 63.6793 29.2923 62.8655 29.73 62.1427C30.1326 61.4346 30.7342 60.9523 31.5348 60.6956C34.5018 62.3316 37.9935 63.3526 42.0098 63.7585C46.0262 64.1643 50.2747 63.9964 54.7554 63.2547C59.2712 62.4982 63.7191 61.1916 68.0994 59.3351C70.0617 58.5034 72.0145 57.5517 73.9578 56.48C75.9011 55.4083 77.7325 54.2187 79.4518 52.9113C80.2947 53.3394 80.8869 53.9565 81.2285 54.7624Z" fill="#E7FFF3"></path>
</g>
<defs>
<clipPath id="clip0_729_2">
<rect width="100" height="100" fill="white"></rect>
</clipPath>
<clipPath id="SvgjsClipPath1070"><rect width="1000" height="1000" x="0" y="0" rx="350" ry="350"></rect></clipPath></defs>
</svg></svg></g></g></svg></g><g id="dark-icon"><svg xmlns="http://www.w3.org/2000/svg" version="1.1" xmlns:xlink="http://www.w3.org/1999/xlink" xmlns:svgjs="http://svgjs.dev/svgjs" width="1000" height="1000"><g clip-path="url(#SvgjsClipPath1071)"><rect width="1000" height="1000" fill="#000000"></rect><g transform="matrix(10,0,0,10,0,0)"><svg xmlns="http://www.w3.org/2000/svg" version="1.1" xmlns:xlink="http://www.w3.org/1999/xlink" xmlns:svgjs="http://svgjs.dev/svgjs" width="100" height="100"><svg width="100" height="100" viewBox="0 0 100 100" fill="none" xmlns="http://www.w3.org/2000/svg">
<g clip-path="url(#clip0_729_2)">
<circle cx="50" cy="50" r="50" fill="black"></circle>
<path d="M42.0985 36.3184C41.4895 34.8817 41.4401 33.4972 41.9502 32.1649C42.4602 30.8327 43.3811 29.8843 44.7127 29.3199C46.2194 28.6813 47.7287 28.6823 49.2404 29.323C50.8019 29.984 51.9243 31.1204 52.6075 32.7323C53.2165 34.169 53.2659 35.5535 52.7558 36.8858C52.2606 38.2531 51.3472 39.219 50.0156 39.7834C48.5088 40.422 46.9746 40.4109 45.4131 39.75C43.8865 39.0742 42.7817 37.9304 42.0985 36.3184ZM25.0003 41.7673C24.3913 40.3306 24.3419 38.9461 24.852 37.6138C25.362 36.2815 26.2829 35.3332 27.6145 34.7688C29.1213 34.1301 30.6305 34.1312 32.1422 34.7719C33.7037 35.4328 34.8261 36.5692 35.5093 38.1811C36.1183 39.6178 36.1677 41.0023 35.6576 42.3346C35.1624 43.702 34.249 44.6678 32.9174 45.2322C31.4106 45.8709 29.8764 45.8597 28.3149 45.1988C26.7884 44.523 25.6835 43.3792 25.0003 41.7673Z" fill="#C6FFE2"></path>
<path d="M81.2285 54.7624C81.6741 55.8137 81.6142 57.0378 81.0489 58.4349C80.5335 59.8521 79.5786 61.2076 78.1841 62.5013C77.1858 63.4619 75.9953 64.3592 74.6126 65.1932C73.23 66.0272 71.6977 66.8007 70.0157 67.5136C67.2123 68.7018 64.115 69.6839 60.7236 70.46C57.347 71.2711 53.944 71.8247 50.5146 72.1208C47.135 72.4371 43.9514 72.4843 40.9638 72.2625C38.0112 72.0258 35.5047 71.4761 33.4442 70.6132C32.2319 70.0937 31.3546 69.5354 30.8122 68.9386C30.2497 68.3916 29.8422 67.8202 29.5897 67.2245C29.2332 66.3835 29.0668 65.5033 29.0905 64.5839C29.0791 63.6793 29.2923 62.8655 29.73 62.1427C30.1326 61.4346 30.7342 60.9523 31.5348 60.6956C34.5018 62.3316 37.9935 63.3526 42.0098 63.7585C46.0262 64.1643 50.2747 63.9964 54.7554 63.2547C59.2712 62.4982 63.7191 61.1916 68.0994 59.3351C70.0617 58.5034 72.0145 57.5517 73.9578 56.48C75.9011 55.4083 77.7325 54.2187 79.4518 52.9113C80.2947 53.3394 80.8869 53.9565 81.2285 54.7624Z" fill="#E7FFF3"></path>
</g>
<defs>
<clipPath id="clip0_729_2">
<rect width="100" height="100" fill="white"></rect>
</clipPath>
<clipPath id="SvgjsClipPath1071"><rect width="1000" height="1000" x="0" y="0" rx="350" ry="350"></rect></clipPath></defs>
</svg></svg></g></g></svg></g></svg>